<?xml version="1.0" encoding="UTF-8"?>
<!DOCTYPE svg PUBLIC "-//W3C//DTD SVG 1.1//EN" "http://www.w3.org/Graphics/SVG/1.1/DTD/svg11.dtd">
<svg xmlns="http://www.w3.org/2000/svg" version="1.1" width="512px" height="512px" style="shape-rendering:geometricPrecision; text-rendering:geometricPrecision; image-rendering:optimizeQuality; fill-rule:evenodd; clip-rule:evenodd" xmlns:xlink="http://www.w3.org/1999/xlink">
<g><path style="opacity:0.997" fill="#1565c0" d="M 287.5,79.5 C 287.5,100.833 287.5,122.167 287.5,143.5C 287.5,154.167 287.5,164.833 287.5,175.5C 287.5,186.167 287.5,196.833 287.5,207.5C 287.5,218.167 287.5,228.833 287.5,239.5C 287.5,250.167 287.5,260.833 287.5,271.5C 287.5,282.167 287.5,292.833 287.5,303.5C 287.5,314.167 287.5,324.833 287.5,335.5C 287.5,346.167 287.5,356.833 287.5,367.5C 287.5,388.833 287.5,410.167 287.5,431.5C 287.667,449.503 287.5,467.503 287,485.5C 283.719,492.139 278.386,495.473 271,495.5C 185.089,480.154 99.2556,464.32 13.5,448C 7.11828,446.657 2.45162,443.157 -0.5,437.5C -0.5,316.167 -0.5,194.833 -0.5,73.5C 2.45162,67.8434 7.11828,64.3434 13.5,63C 99.2556,46.6798 185.089,30.8465 271,15.5C 278.724,15.0278 284.057,18.3611 287,25.5C 287.5,43.4969 287.667,61.4969 287.5,79.5 Z"/></g>
<g><path style="opacity:1" fill="#ebeef0" d="M 287.5,79.5 C 358.834,79.3333 430.167,79.5 501.5,80C 506.02,82.0223 509.353,85.189 511.5,89.5C 511.5,200.167 511.5,310.833 511.5,421.5C 509.353,425.811 506.02,428.978 501.5,431C 430.167,431.5 358.834,431.667 287.5,431.5C 287.5,410.167 287.5,388.833 287.5,367.5C 336.834,367.667 386.168,367.5 435.5,367C 446.907,362.121 450.074,353.954 445,342.5C 442.407,339.457 439.24,337.29 435.5,336C 386.168,335.5 336.834,335.333 287.5,335.5C 287.5,324.833 287.5,314.167 287.5,303.5C 336.834,303.667 386.168,303.5 435.5,303C 446.907,298.121 450.074,289.954 445,278.5C 442.407,275.457 439.24,273.29 435.5,272C 386.168,271.5 336.834,271.333 287.5,271.5C 287.5,260.833 287.5,250.167 287.5,239.5C 336.834,239.667 386.168,239.5 435.5,239C 446.907,234.121 450.074,225.954 445,214.5C 442.407,211.457 439.24,209.29 435.5,208C 386.168,207.5 336.834,207.333 287.5,207.5C 287.5,196.833 287.5,186.167 287.5,175.5C 336.834,175.667 386.168,175.5 435.5,175C 446.907,170.121 450.074,161.954 445,150.5C 442.407,147.457 439.24,145.29 435.5,144C 386.168,143.5 336.834,143.333 287.5,143.5C 287.5,122.167 287.5,100.833 287.5,79.5 Z"/></g>
<g><path style="opacity:1" fill="#1976d2" d="M 287.5,143.5 C 336.834,143.333 386.168,143.5 435.5,144C 439.24,145.29 442.407,147.457 445,150.5C 450.074,161.954 446.907,170.121 435.5,175C 386.168,175.5 336.834,175.667 287.5,175.5C 287.5,164.833 287.5,154.167 287.5,143.5 Z"/></g>
<g><path style="opacity:1" fill="#f7f8f9" d="M 202.5,175.5 C 215.266,174.351 222.266,180.018 223.5,192.5C 218.286,242.594 212.453,292.594 206,342.5C 199.918,351.196 192.084,353.363 182.5,349C 181.333,347.833 180.167,346.667 179,345.5C 167.059,315.172 155.226,284.839 143.5,254.5C 131.774,284.839 119.941,315.172 108,345.5C 99.6667,353.5 91.3333,353.5 83,345.5C 81.0728,342.052 79.7394,338.385 79,334.5C 73.5061,297.209 68.3394,259.876 63.5,222.5C 66.3062,209.763 73.9728,205.263 86.5,209C 92.2972,212.091 95.4638,216.924 96,223.5C 98.0545,238.882 100.388,254.215 103,269.5C 111.835,245.009 121.335,220.842 131.5,197C 142.633,189.589 151.799,191.422 159,202.5C 167,223.833 175,245.167 183,266.5C 186.073,239.842 189.073,213.175 192,186.5C 194.357,181.645 197.857,177.979 202.5,175.5 Z"/></g>
<g><path style="opacity:1" fill="#1976d2" d="M 287.5,207.5 C 336.834,207.333 386.168,207.5 435.5,208C 439.24,209.29 442.407,211.457 445,214.5C 450.074,225.954 446.907,234.121 435.5,239C 386.168,239.5 336.834,239.667 287.5,239.5C 287.5,228.833 287.5,218.167 287.5,207.5 Z"/></g>
<g><path style="opacity:1" fill="#1976d2" d="M 287.5,271.5 C 336.834,271.333 386.168,271.5 435.5,272C 439.24,273.29 442.407,275.457 445,278.5C 450.074,289.954 446.907,298.121 435.5,303C 386.168,303.5 336.834,303.667 287.5,303.5C 287.5,292.833 287.5,282.167 287.5,271.5 Z"/></g>
<g><path style="opacity:1" fill="#1976d2" d="M 287.5,335.5 C 336.834,335.333 386.168,335.5 435.5,336C 439.24,337.29 442.407,339.457 445,342.5C 450.074,353.954 446.907,362.121 435.5,367C 386.168,367.5 336.834,367.667 287.5,367.5C 287.5,356.833 287.5,346.167 287.5,335.5 Z"/></g>
</svg>
